<svg width="512" height="512" xmlns="http://www.w3.org/2000/svg" clip-rule="evenodd">

 <g>
  <title>background</title>
  <rect fill="none" id="canvas_background" height="402" width="582" y="-1" x="-1"/>
 </g>
 <g>
  <title>Layer 1</title>
  <path fill="#caa971" id="svg_1" d="m255.022003,511.997986l0.229004,0.001007l-0.07901,0l-0.149994,-0.001007zm1.806,0.001007l-0.07901,0l0.229004,-0.001007l-0.149994,0.001007zm-2.587997,-0.005005l0.246994,0.001007l-0.141998,0l-0.104996,-0.001007zm3.414993,0.001007l-0.141998,0l0.247009,-0.001007l-0.105011,0.001007zm-4.169006,-0.007019l0.165009,0.001007l-0.132004,-0.001007l-0.033005,0zm4.994995,0l-0.131989,0.001007l0.165009,-0.001007l-0.03302,0zm0.826019,-0.008972l-0.058014,0.000977l0.222992,-0.002991l-0.164978,0.002014zm-6.779007,-0.002014l0.223007,0.002991l-0.058014,-0.000977l-0.164993,-0.002014zm7.603989,-0.01001l-0.134979,0.002014l0.274994,-0.003998l-0.140015,0.001984zm-8.403992,-0.001984l0.275009,0.003998l-0.13501,-0.002014l-0.139999,-0.001984zm9.227997,-0.011993l-0.182007,0.002991l0.254028,-0.005005l-0.072021,0.002014zm-9.983994,-0.002014l0.253998,0.005005l-0.181992,-0.002991l-0.072006,-0.002014zm-0.936996,-0.019012l0.224991,0.005005l-0.039993,-0.000977l-0.184998,-0.004028zm11.744995,0.004028l-0.040009,0.000977l0.225006,-0.005005l-0.184998,0.004028zm-12.567001,-0.025024l0.309006,0.007996l-0.125,-0.002991l-0.184006,-0.005005zm13.389999,0.005005l-0.125,0.002991l0.30899,-0.007996l-0.18399,0.005005zm0.822998,-0.022003l-0.200989,0.006012l0.315979,-0.009003l-0.11499,0.002991zm-14.966995,-0.002991l0.315994,0.009003l-0.200989,-0.006012l-0.115005,-0.002991zm-0.720001,-0.022003l0.225006,0.006989l-0.212006,-0.006989l-0.194,-0.006012l0.181,0.006012zm16.508987,0l-0.211975,0.006989l0.224976,-0.006989l0.181,-0.006012l-0.194,0.006012zm0.821014,-0.027008l-0.112,0.003998l0.345001,-0.011993l-0.233002,0.007996zm-18.371002,-0.007996l0.345001,0.011993l-0.112,-0.003998l-0.233002,-0.007996zm-0.748993,-0.027985l0.362,0.013l-0.201004,-0.007019l-0.160995,-0.005981zm19.94101,0.005981l-0.201019,0.007019l0.362,-0.013l-0.16098,0.005981zm-20.67601,-0.03598l0.353989,0.014984l-0.276993,-0.010986l-0.076996,-0.003998zm21.49501,0.003998l-0.277008,0.010986l0.354004,-0.014984l-0.076996,0.003998zm-22.525009,-0.049011l0.37999,0.016998l-0.093002,-0.002991l-0.286987,-0.014008zm23.344986,0.014008l-0.092987,0.002991l0.380005,-0.016998l-0.287018,0.014008zm-24.083984,-0.048004l0.393997,0.018005l-0.186005,-0.007996l-0.207993,-0.01001zm24.901978,0.01001l-0.185974,0.007996l0.393982,-0.018005l-0.208008,0.01001zm-25.62999,-0.046997l0.397003,0.019989l-0.278992,-0.013l-0.118011,-0.006989zm26.448013,0.006989l-0.279022,0.013l0.397003,-0.019989l-0.117981,0.006989zm0.817993,-0.042999l-0.362,0.018982l0.320984,-0.016998l0.378021,-0.020996l-0.337006,0.019012zm-27.925003,0.001984l0.320999,0.016998l-0.362,-0.018982l-0.337006,-0.019012l0.378006,0.020996zm28.741013,-0.047974l-0.160004,0.008972l0.406006,-0.02298l-0.246002,0.014008zm-29.844009,-0.014008l0.405991,0.02298l-0.159988,-0.008972l-0.246002,-0.014008zm-0.722,-0.042999l0.404999,0.023987l-0.253006,-0.014008l-0.151993,-0.009979zm31.381989,0.009979l-0.252991,0.014008l0.404999,-0.023987l-0.152008,0.009979zm-32.070984,-0.052979l0.365005,0.02298l-0.339996,-0.020996l-0.34201,-0.022003l0.317001,0.02002zm32.886993,0.001984l-0.339996,0.020996l0.365021,-0.02298l0.316986,-0.02002l-0.34201,0.022003zm0.813995,-0.052979l-0.121979,0.007996l0.386993,-0.026001l-0.265015,0.018005zm-34.75499,-0.018005l0.387009,0.026001l-0.122009,-0.007996l-0.264999,-0.018005zm-0.721008,-0.050018l0.380005,0.027008l-0.208008,-0.014008l-0.171997,-0.013zm36.290024,0.013l-0.208008,0.014008l0.380005,-0.027008l-0.171997,0.013zm-37.009018,-0.063995l0.349014,0.024994l-0.271011,-0.018982l-0.078003,-0.006012zm37.822006,0.006012l-0.270996,0.018982l0.348999,-0.024994l-0.078003,0.006012zm-38.789017,-0.07901l0.306015,0.02301l-0.074005,-0.005005l-0.23201,-0.018005zm39.602005,0.018005l-0.073975,0.005005l0.306,-0.02301l-0.232025,0.018005zm0.811005,-0.062988l-0.145996,0.010986l0.311005,-0.024994l-0.165009,0.014008zm-41.156998,-0.014008l0.310989,0.024994l-0.145996,-0.010986l-0.164993,-0.014008zm-0.725006,-0.05899l0.264008,0.021973l-0.186005,-0.014984l-0.078003,-0.006989zm42.694016,0.006989l-0.186005,0.014984l0.263977,-0.021973l-0.077972,0.006989zm-43.49202,-0.074005l0.07901,0.006989l-0.013,-0.000977l-0.06601,-0.006012zm44.302017,0.006012l-0.013,0.000977l0.078979,-0.006989l-0.065979,0.006012zm0.809998,-0.071014l-0.072021,0.006012l0.181,-0.016022l-0.108978,0.01001zm-45.965012,-0.01001l0.181,0.016022l-0.071991,-0.006012l-0.109009,-0.01001zm-0.75,-0.067993l0.13501,0.013l-0.084,-0.007996l-0.05101,-0.005005zm47.522995,0.005005l-0.083984,0.007996l0.134979,-0.013l-0.050995,0.005005zm-63.735992,-2.024994c-122.319,-19.226013 -216,-125.203003 -216,-252.887009c0,-141.289986 114.709999,-255.999995 256,-255.999995c141.289978,0 256,114.710001 256,255.999995c0,127.684006 -93.681,233.660995 -216,252.887009l0,-178.886993l59.649994,0l11.350006,-74.000015l-71,0l0,-48.020996c0,-20.244995 9.917999,-39.979004 41.718994,-39.979004l32.281006,0l0,-62.999992c0,0 -29.29599,-5 -57.304993,-5c-58.476013,0 -96.695007,35.439995 -96.695007,99.599998l0,56.399994l-65,0l0,74.000015l65,0l0,178.886993z"/>
 </g>
</svg>