<svg width="512" height="512" xmlns="http://www.w3.org/2000/svg" clip-rule="evenodd">

 <g>
  <title>background</title>
  <rect fill="none" id="canvas_background" height="402" width="582" y="-1" x="-1"/>
 </g>
 <g>
  <title>Layer 1</title>
  <path fill="#caa971" id="svg_1" d="m256,0c141.289978,0 256,114.709999 256,256c0,141.289978 -114.709991,256 -256,256c-141.289993,0 -256,-114.709991 -256,-256c0,-141.289993 114.709999,-256 256,-256zm0,96c-43.453003,0 -48.901993,0.183998 -65.968002,0.962997c-17.029999,0.777 -28.660995,3.482002 -38.839005,7.437004c-10.520996,4.088997 -19.444,9.559998 -28.338997,18.455002c-8.894997,8.894997 -14.365997,17.818001 -18.454994,28.338997c-3.955002,10.177002 -6.659004,21.807999 -7.437004,38.837997c-0.778,17.06601 -0.961998,22.514999 -0.961998,65.968002c0,43.453003 0.183998,48.902008 0.961998,65.968018c0.778,17.029999 3.482002,28.66098 7.437004,38.837982c4.088997,10.520996 9.559998,19.444 18.454994,28.339996c8.894997,8.89502 17.818001,14.366028 28.338997,18.455017c10.178009,3.95401 21.809006,6.658997 38.839005,7.436005c17.06601,0.778992 22.514999,0.962982 65.968002,0.962982c43.453003,0 48.902008,-0.18399 65.967987,-0.962982c17.029999,-0.777008 28.661011,-3.481995 38.838013,-7.436005c10.520996,-4.088989 19.444,-9.559998 28.339996,-18.455017c8.894989,-8.895996 14.365997,-17.819 18.455017,-28.339996c3.953979,-10.177002 6.658997,-21.807983 7.435974,-38.837982c0.779022,-17.06601 0.963013,-22.515015 0.963013,-65.968018c0,-43.453003 -0.18399,-48.901993 -0.963013,-65.968002c-0.776978,-17.029999 -3.481995,-28.660995 -7.435974,-38.837997c-4.08902,-10.520996 -9.560028,-19.444 -18.455017,-28.338997c-8.895996,-8.895004 -17.819,-14.366005 -28.339996,-18.455002c-10.177002,-3.955002 -21.808014,-6.660004 -38.838013,-7.437004c-17.065979,-0.778999 -22.514984,-0.962997 -65.967987,-0.962997zm0,28.829002c42.721985,0 47.782013,0.162994 64.653992,0.932999c15.600006,0.711998 24.071014,3.318001 29.709015,5.508995c7.468994,2.902008 12.798981,6.37001 18.397003,11.969009c5.599976,5.597992 9.066986,10.929001 11.968994,18.396988c2.19101,5.638 4.798004,14.109009 5.509003,29.709c0.769989,16.872009 0.932983,21.932007 0.932983,64.654007c0,42.721985 -0.162994,47.782013 -0.932983,64.653992c-0.710999,15.600006 -3.317993,24.071014 -5.509003,29.709015c-2.902008,7.468994 -6.369019,12.798981 -11.968994,18.397003c-5.598022,5.599976 -10.928009,9.066986 -18.397003,11.968994c-5.638,2.19101 -14.109009,4.798004 -29.709015,5.509003c-16.868988,0.769989 -21.928986,0.932983 -64.653992,0.932983c-42.725006,0 -47.783997,-0.162994 -64.654007,-0.932983c-15.599991,-0.710999 -24.070999,-3.317993 -29.709,-5.509003c-7.468994,-2.902008 -12.798996,-6.369019 -18.397995,-11.968994c-5.598999,-5.598022 -9.065994,-10.928009 -11.968002,-18.397003c-2.190994,-5.638 -4.797997,-14.109009 -5.509995,-29.709015c-0.770004,-16.871979 -0.931999,-21.932007 -0.931999,-64.653992c0,-42.722 0.161995,-47.781998 0.931999,-64.654007c0.711998,-15.599991 3.319,-24.070999 5.509995,-29.709c2.902008,-7.467987 6.369003,-12.798996 11.968002,-18.396988c5.598999,-5.598999 10.929001,-9.067001 18.397995,-11.969009c5.638,-2.190994 14.109009,-4.796997 29.709,-5.508995c16.872009,-0.770004 21.932007,-0.932999 64.654007,-0.932999zm0,49.008995c-45.376999,0 -82.162003,36.785004 -82.162003,82.162003c0,45.377014 36.785004,82.161987 82.162003,82.161987c45.377014,0 82.161987,-36.784973 82.161987,-82.161987c0,-45.376999 -36.784973,-82.162003 -82.161987,-82.162003zm0,135.49498c-29.455002,0 -53.332993,-23.877991 -53.332993,-53.332993c0,-29.455002 23.877991,-53.332993 53.332993,-53.332993c29.454987,0 53.333008,23.877991 53.333008,53.332993c0,29.455002 -23.878021,53.332993 -53.333008,53.332993zm104.609009,-138.740982c0,10.604004 -8.597015,19.199005 -19.201019,19.199005c-10.602997,0 -19.198975,-8.595001 -19.198975,-19.199005c0,-10.603989 8.595978,-19.199997 19.198975,-19.199997c10.604004,0 19.201019,8.596008 19.201019,19.199997z"/>
 </g>
</svg>