<svg width="512" height="512" xmlns="http://www.w3.org/2000/svg" clip-rule="evenodd">

 <g>
  <title>background</title>
  <rect fill="none" id="canvas_background" height="402" width="582" y="-1" x="-1"/>
 </g>
 <g>
  <title>Layer 1</title>
  <path fill="#caa971" id="svg_1" d="m256,0c141.289978,0 256,114.709999 256,256c0,141.289978 -114.709991,256 -256,256c-141.289993,0 -256,-114.709991 -256,-256c0,-141.289993 114.709999,-256 256,-256zm-45.091003,392.15799c113.28299,0 175.223999,-93.869995 175.223999,-175.223007c0,-2.682007 0,-5.363998 -0.127991,-7.919006c12.005005,-8.68399 22.477997,-19.539993 30.778992,-31.927994c-10.983002,4.852997 -22.860992,8.173996 -35.376984,9.705994c12.771973,-7.662994 22.477997,-19.667999 27.075989,-34.098999c-11.877991,7.024002 -25.032013,12.132004 -39.080994,14.942001c-11.239014,-12.005005 -27.203003,-19.412003 -44.955017,-19.412003c-33.971985,0 -61.557983,27.585999 -61.557983,61.557999c0,4.853012 0.510986,9.578003 1.660004,14.048004c-51.213013,-2.554001 -96.552017,-27.074997 -126.947006,-64.367981c-5.237,9.067993 -8.302002,19.667999 -8.302002,30.906998c0,21.327988 10.856003,40.229996 27.459,51.212997c-10.089996,-0.255005 -19.541,-3.065002 -27.841995,-7.662003l0,0.766006c0,29.884995 21.199997,54.660995 49.424988,60.408981c-5.108002,1.404022 -10.599991,2.171021 -16.218994,2.171021c-3.960007,0 -7.791,-0.382996 -11.621994,-1.149994c7.789993,24.520996 30.522995,42.273987 57.470993,42.783997c-21.072998,16.475983 -47.636993,26.309998 -76.501007,26.309998c-4.980995,0 -9.833992,-0.256012 -14.686996,-0.894012c26.947998,17.623993 59.387009,27.841003 94.125,27.841003z"/>
 </g>
</svg>